# xmcd CD database generated by RipIT
#
# Track frame offsets:
# 192
# 10290
# 21942
# 33857
# 46250
# 57452
# 73075
# 85685
# 97225
# 110805
# 123037
# 135545
# 145875
# 157887
#
# Disc length: 2321 seconds
#
# Revision: 0
# Processed by: cddbd v1.5.1PL2 Copyright (c) Steve Scherf et al.
# Submitted via: RipIT 3.4.1.4 www.suwald.com/ripit/ripit.html at Sun Apr  9 20:20:53 CDT 2006
#
DISCID=bb090f0e
DTITLE=John Lee Hooker - the best of
DYEAR=1991
DGENRE=
TTITLE0=Dimples
TTITLE1=Boogie Chillun
TTITLE2=Little wheel
TTITLE3=Crawlin king snake
TTITLE4=No Shoues
TTITLE5=Tupelo
TTITLE6=Drugstore woman
TTITLE7=Boom Boom
TTITLE8=Hobo Blues
TTITLE9=I m in the mood
TTITLE10=whiskey and wimmen
TTITLE11=Dusty road
TTITLE12=will the circle be unbroken
TTITLE13=It surve you right to suffer
EXTD=
EXTT0=
EXTT1=
EXTT2=
EXTT3=
EXTT4=
EXTT5=
EXTT6=
EXTT7=
EXTT8=
EXTT9=
EXTT10=
EXTT11=
EXTT12=
EXTT13=
PLAYORDER=
